<?xml version="1.0" encoding="UTF-8" standalone="no"?>
<!-- Generator: Adobe Illustrator 19.0.0, SVG Export Plug-In . SVG Version: 6.00 Build 0)  -->

<svg
   xmlns:dc="http://purl.org/dc/elements/1.1/"
   xmlns:cc="http://creativecommons.org/ns#"
   xmlns:rdf="http://www.w3.org/1999/02/22-rdf-syntax-ns#"
   xmlns:svg="http://www.w3.org/2000/svg"
   xmlns="http://www.w3.org/2000/svg"
   xmlns:sodipodi="http://sodipodi.sourceforge.net/DTD/sodipodi-0.dtd"
   xmlns:inkscape="http://www.inkscape.org/namespaces/inkscape"
   version="1.1"
   id="Layer_1"
   x="0px"
   y="0px"
   viewBox="0 0 24 24"
   xml:space="preserve"
   sodipodi:docname="trash.svg"
   width="24"
   height="24"
   inkscape:version="0.92.4 (unknown)"><metadata
   id="metadata49"><rdf:RDF><cc:Work
       rdf:about=""><dc:format>image/svg+xml</dc:format><dc:type
         rdf:resource="http://purl.org/dc/dcmitype/StillImage" /><dc:title></dc:title></cc:Work></rdf:RDF></metadata><defs
   id="defs47" /><sodipodi:namedview
   pagecolor="#ffffff"
   bordercolor="#666666"
   borderopacity="1"
   objecttolerance="10"
   gridtolerance="10"
   guidetolerance="10"
   inkscape:pageopacity="0"
   inkscape:pageshadow="2"
   inkscape:window-width="1920"
   inkscape:window-height="1015"
   id="namedview45"
   showgrid="false"
   inkscape:zoom="7.375"
   inkscape:cx="28.356201"
   inkscape:cy="6.5643555"
   inkscape:window-x="0"
   inkscape:window-y="0"
   inkscape:window-maximized="1"
   inkscape:current-layer="Layer_1" />
<rect
   x="4.9180551"
   y="8.9874268"
   style="fill:#f4b2b0;stroke-width:0.046875"
   width="14.16389"
   height="14.274562"
   id="rect2" />
<g
   id="g12"
   transform="scale(0.046875)">
	<path
   style="fill:#b3404a"
   d="m 180.066,413.377 c -8.69,0 -15.738,-7.047 -15.738,-15.738 V 296.918 c 0,-8.69 7.047,-15.738 15.738,-15.738 8.691,0 15.738,7.047 15.738,15.738 v 100.721 c -0.001,8.69 -7.048,15.738 -15.738,15.738 z"
   id="path4"
   inkscape:connector-curvature="0" />
	<path
   style="fill:#b3404a"
   d="m 256,413.377 c -8.69,0 -15.738,-7.047 -15.738,-15.738 V 296.918 c 0,-8.69 7.047,-15.738 15.738,-15.738 8.69,0 15.738,7.047 15.738,15.738 v 100.721 c 0,8.69 -7.048,15.738 -15.738,15.738 z"
   id="path6"
   inkscape:connector-curvature="0" />
	<path
   style="fill:#b3404a"
   d="m 331.934,413.377 c -8.69,0 -15.738,-7.047 -15.738,-15.738 V 296.918 c 0,-8.69 7.047,-15.738 15.738,-15.738 8.691,0 15.738,7.047 15.738,15.738 v 100.721 c 0,8.69 -7.047,15.738 -15.738,15.738 z"
   id="path8"
   inkscape:connector-curvature="0" />
	<path
   style="fill:#b3404a"
   d="m 395.935,73.706 c -8.69,0 -15.738,7.047 -15.738,15.738 0,8.691 7.047,15.738 15.738,15.738 18.295,0 33.18,14.885 33.18,33.18 v 37.64 H 407.08 104.92 82.886 v -37.64 c 0,-18.295 14.885,-33.18 33.18,-33.18 h 163.541 c 8.69,0 15.738,-7.047 15.738,-15.738 0,-8.691 -7.047,-15.738 -15.738,-15.738 h -92.852 v -42.23 h 138.492 v 57.968 c 0,8.69 7.047,15.738 15.738,15.738 8.691,0 15.738,-7.047 15.738,-15.738 V 15.738 C 356.723,7.048 349.676,0 340.985,0 H 171.017 c -8.69,0 -15.738,7.047 -15.738,15.738 v 57.968 h -39.214 c -35.651,0 -64.655,29.005 -64.655,64.655 v 53.377 c 0,8.69 7.047,15.738 15.738,15.738 h 22.034 v 288.786 c 0,8.69 7.047,15.738 15.738,15.738 h 302.16 c 8.69,0 15.738,-7.047 15.738,-15.738 V 207.476 h 22.034 c 8.69,0 15.738,-7.047 15.738,-15.738 v -53.377 c 0,-35.651 -29.005,-64.655 -64.655,-64.655 z m -4.593,406.819 H 120.658 V 207.476 h 270.685 v 273.049 z"
   id="path10"
   inkscape:connector-curvature="0" />
</g>
<g
   id="g14"
   transform="matrix(0.046875,0,0,0.046875,49.000156,0)">
</g>
<g
   id="g16"
   transform="matrix(0.046875,0,0,0.046875,49.000156,0)">
</g>
<g
   id="g18"
   transform="matrix(0.046875,0,0,0.046875,49.000156,0)">
</g>
<g
   id="g20"
   transform="matrix(0.046875,0,0,0.046875,49.000156,0)">
</g>
<g
   id="g22"
   transform="matrix(0.046875,0,0,0.046875,49.000156,0)">
</g>
<g
   id="g24"
   transform="matrix(0.046875,0,0,0.046875,49.000156,0)">
</g>
<g
   id="g26"
   transform="matrix(0.046875,0,0,0.046875,49.000156,0)">
</g>
<g
   id="g28"
   transform="matrix(0.046875,0,0,0.046875,49.000156,0)">
</g>
<g
   id="g30"
   transform="matrix(0.046875,0,0,0.046875,49.000156,0)">
</g>
<g
   id="g32"
   transform="matrix(0.046875,0,0,0.046875,49.000156,0)">
</g>
<g
   id="g34"
   transform="matrix(0.046875,0,0,0.046875,49.000156,0)">
</g>
<g
   id="g36"
   transform="matrix(0.046875,0,0,0.046875,49.000156,0)">
</g>
<g
   id="g38"
   transform="matrix(0.046875,0,0,0.046875,49.000156,0)">
</g>
<g
   id="g40"
   transform="matrix(0.046875,0,0,0.046875,49.000156,0)">
</g>
<g
   id="g42"
   transform="matrix(0.046875,0,0,0.046875,49.000156,0)">
</g>
</svg>