<?xml version="1.0" encoding="UTF-8" standalone="no"?><svg xmlns:dc="http://purl.org/dc/elements/1.1/" xmlns:cc="http://creativecommons.org/ns#" xmlns:rdf="http://www.w3.org/1999/02/22-rdf-syntax-ns#" xmlns:svg="http://www.w3.org/2000/svg" xmlns="http://www.w3.org/2000/svg" xmlns:sodipodi="http://sodipodi.sourceforge.net/DTD/sodipodi-0.dtd" xmlns:inkscape="http://www.inkscape.org/namespaces/inkscape"
   version="1.1"
   id="Layer_1"
   x="0px"
   y="0px"
   viewBox="0 0 24 24"
   xml:space="preserve"
   sodipodi:docname="left-arrow.svg"
   width="24"
   height="24"
   inkscape:version="0.92.4 (unknown)"><metadata
   id="metadata132"><rdf:RDF><cc:Work
       rdf:about=""><dc:format>image/svg+xml</dc:format><dc:type
         rdf:resource="http://purl.org/dc/dcmitype/StillImage" /><dc:title></dc:title></cc:Work></rdf:RDF></metadata><defs
   id="defs130" /><sodipodi:namedview
   pagecolor="#ffffff"
   bordercolor="#666666"
   borderopacity="1"
   objecttolerance="10"
   gridtolerance="10"
   guidetolerance="10"
   inkscape:pageopacity="0"
   inkscape:pageshadow="2"
   inkscape:window-width="1920"
   inkscape:window-height="1015"
   id="namedview128"
   showgrid="false"
   scale-x="1"
   inkscape:zoom="26.894309"
   inkscape:cx="7.6036459"
   inkscape:cy="11.570327"
   inkscape:window-x="0"
   inkscape:window-y="0"
   inkscape:window-maximized="1"
   inkscape:current-layer="Layer_1" /><g
   id="g95"
   transform="matrix(0.04878049,0,0,0.04878049,2.0737874e-6,-5.4e-7)"><g
   id="g93"><path
   d="M 198.608,246.104 382.664,62.04 c 5.068,-5.056 7.856,-11.816 7.856,-19.024 0,-7.212 -2.788,-13.968 -7.856,-19.032 L 366.536,7.864 C 361.476,2.792 354.712,0 347.504,0 340.296,0 333.54,2.792 328.476,7.864 L 109.328,227.008 c -5.084,5.08 -7.868,11.868 -7.848,19.084 -0.02,7.248 2.76,14.028 7.848,19.112 l 218.944,218.932 c 5.064,5.072 11.82,7.864 19.032,7.864 7.208,0 13.964,-2.792 19.032,-7.864 l 16.124,-16.12 c 10.492,-10.492 10.492,-27.572 0,-38.06 z"
   id="path91"
   inkscape:connector-curvature="0" /></g></g><g
   id="g97"
   transform="translate(0,-468)"></g><g
   id="g99"
   transform="translate(0,-468)"></g><g
   id="g101"
   transform="translate(0,-468)"></g><g
   id="g103"
   transform="translate(0,-468)"></g><g
   id="g105"
   transform="translate(0,-468)"></g><g
   id="g107"
   transform="translate(0,-468)"></g><g
   id="g109"
   transform="translate(0,-468)"></g><g
   id="g111"
   transform="translate(0,-468)"></g><g
   id="g113"
   transform="translate(0,-468)"></g><g
   id="g115"
   transform="translate(0,-468)"></g><g
   id="g117"
   transform="translate(0,-468)"></g><g
   id="g119"
   transform="translate(0,-468)"></g><g
   id="g121"
   transform="translate(0,-468)"></g><g
   id="g123"
   transform="translate(0,-468)"></g><g
   id="g125"
   transform="translate(0,-468)"></g></svg>
