<?xml version="1.0" encoding="UTF-8" standalone="no"?>
<!-- Generator: Adobe Illustrator 16.0.0, SVG Export Plug-In . SVG Version: 6.00 Build 0)  -->
<svg
	xmlns:dc="http://purl.org/dc/elements/1.1/"
	xmlns:cc="http://creativecommons.org/ns#"
	xmlns:rdf="http://www.w3.org/1999/02/22-rdf-syntax-ns#"
	xmlns:svg="http://www.w3.org/2000/svg"
	xmlns="http://www.w3.org/2000/svg"
	xmlns:sodipodi="http://sodipodi.sourceforge.net/DTD/sodipodi-0.dtd"
	xmlns:inkscape="http://www.inkscape.org/namespaces/inkscape"
   version="1.1"
   id="Capa_1"
   x="0px"
   y="0px"
   width="24"
   height="24"
   viewBox="0 0 24 24"
   xml:space="preserve"
   sodipodi:docname="menu.svg"
   inkscape:version="0.92.4 (unknown)">
	<metadata
   id="metadata136">
		<rdf:RDF>
			<cc:Work
   rdf:about="">
				<dc:format>image/svg+xml</dc:format>
				<dc:type
   rdf:resource="http://purl.org/dc/dcmitype/StillImage" />
				<dc:title />
			</cc:Work>
		</rdf:RDF>
	</metadata>
	<defs
   id="defs134" />
	<sodipodi:namedview
   pagecolor="#ffffff"
   bordercolor="#666666"
   borderopacity="1"
   objecttolerance="10"
   gridtolerance="10"
   guidetolerance="10"
   inkscape:pageopacity="0"
   inkscape:pageshadow="2"
   inkscape:window-width="1366"
   inkscape:window-height="703"
   id="namedview132"
   showgrid="false"
   inkscape:zoom="11.747097"
   inkscape:cx="8.4323375"
   inkscape:cy="12.093276"
   inkscape:window-x="0"
   inkscape:window-y="0"
   inkscape:window-maximized="1"
   inkscape:current-layer="Capa_1" />
	<g
   id="g99"
   transform="matrix(0.19354839,0,0,0.19354839,0,0)"
   style="fill:#5cdb95;fill-opacity:1">
		<path
   d="M 112,6 H 12 C 5.4,6 0,11.4 0,18 0,24.6 5.4,30 12,30 h 100 c 6.6,0 12,-5.4 12,-12 0,-6.6 -5.4,-12 -12,-12 z"
   id="path93"
   inkscape:connector-curvature="0"
   style="fill:#5cdb95;fill-opacity:1" />
		<path
   d="M 112,50 H 12 C 5.4,50 0,55.4 0,62 0,68.6 5.4,74 12,74 h 100 c 6.6,0 12,-5.4 12,-12 0,-6.6 -5.4,-12 -12,-12 z"
   id="path95"
   inkscape:connector-curvature="0"
   style="fill:#5cdb95;fill-opacity:1" />
		<path
   d="M 112,94 H 12 c -6.6,0 -12,5.4 -12,12 0,6.6 5.4,12 12,12 h 100 c 6.6,0 12,-5.4 12,-12 0,-6.6 -5.4,-12 -12,-12 z"
   id="path97"
   inkscape:connector-curvature="0"
   style="fill:#5cdb95;fill-opacity:1" />
	</g>
	<g
   id="g101"
   transform="matrix(0.19354839,0,0,0.19354839,0,1.16129)" />
	<g
   id="g103"
   transform="matrix(0.19354839,0,0,0.19354839,0,1.16129)" />
	<g
   id="g105"
   transform="matrix(0.19354839,0,0,0.19354839,0,1.16129)" />
	<g
   id="g107"
   transform="matrix(0.19354839,0,0,0.19354839,0,1.16129)" />
	<g
   id="g109"
   transform="matrix(0.19354839,0,0,0.19354839,0,1.16129)" />
	<g
   id="g111"
   transform="matrix(0.19354839,0,0,0.19354839,0,1.16129)" />
	<g
   id="g113"
   transform="matrix(0.19354839,0,0,0.19354839,0,1.16129)" />
	<g
   id="g115"
   transform="matrix(0.19354839,0,0,0.19354839,0,1.16129)" />
	<g
   id="g117"
   transform="matrix(0.19354839,0,0,0.19354839,0,1.16129)" />
	<g
   id="g119"
   transform="matrix(0.19354839,0,0,0.19354839,0,1.16129)" />
	<g
   id="g121"
   transform="matrix(0.19354839,0,0,0.19354839,0,1.16129)" />
	<g
   id="g123"
   transform="matrix(0.19354839,0,0,0.19354839,0,1.16129)" />
	<g
   id="g125"
   transform="matrix(0.19354839,0,0,0.19354839,0,1.16129)" />
	<g
   id="g127"
   transform="matrix(0.19354839,0,0,0.19354839,0,1.16129)" />
	<g
   id="g129"
   transform="matrix(0.19354839,0,0,0.19354839,0,1.16129)" />
</svg>
