<?xml version="1.0" encoding="UTF-8" standalone="no"?><svg xmlns:dc="http://purl.org/dc/elements/1.1/" xmlns:cc="http://creativecommons.org/ns#" xmlns:rdf="http://www.w3.org/1999/02/22-rdf-syntax-ns#" xmlns:svg="http://www.w3.org/2000/svg" xmlns="http://www.w3.org/2000/svg" xmlns:sodipodi="http://sodipodi.sourceforge.net/DTD/sodipodi-0.dtd" xmlns:inkscape="http://www.inkscape.org/namespaces/inkscape"
   version="1.1"
   id="Layer_1"
   x="0px"
   y="0px"
   viewBox="0 0 24 24"
   xml:space="preserve"
   sodipodi:docname="right-arrow.svg"
   width="24"
   height="24"
   inkscape:version="0.92.4 (unknown)"><metadata
   id="metadata253"><rdf:RDF><cc:Work
       rdf:about=""><dc:format>image/svg+xml</dc:format><dc:type
         rdf:resource="http://purl.org/dc/dcmitype/StillImage" /><dc:title></dc:title></cc:Work></rdf:RDF></metadata><defs
   id="defs251" /><sodipodi:namedview
   pagecolor="#ffffff"
   bordercolor="#666666"
   borderopacity="1"
   objecttolerance="10"
   gridtolerance="10"
   guidetolerance="10"
   inkscape:pageopacity="0"
   inkscape:pageshadow="2"
   inkscape:window-width="1920"
   inkscape:window-height="1015"
   id="namedview249"
   showgrid="false"
   inkscape:zoom="7.6747344"
   inkscape:cx="63.741751"
   inkscape:cy="14.088196"
   inkscape:window-x="0"
   inkscape:window-y="0"
   inkscape:window-maximized="1"
   inkscape:current-layer="Layer_1" /><g
   id="g216"
   transform="matrix(0.04878009,0,0,0.04878009,-1.3705468e-6,2.9982e-7)"><g
   id="g214"><path
   d="M 382.678,226.804 163.73,7.86 C 158.666,2.792 151.906,0 144.698,0 137.49,0 130.73,2.792 125.666,7.86 l -16.124,16.12 c -10.492,10.504 -10.492,27.576 0,38.064 L 293.398,245.9 109.338,429.96 c -5.064,5.068 -7.86,11.824 -7.86,19.028 0,7.212 2.796,13.968 7.86,19.04 l 16.124,16.116 c 5.068,5.068 11.824,7.86 19.032,7.86 7.208,0 13.968,-2.792 19.032,-7.86 L 382.678,265 c 5.076,-5.084 7.864,-11.872 7.848,-19.088 0.016,-7.244 -2.772,-14.028 -7.848,-19.108 z"
   id="path212"
   inkscape:connector-curvature="0" /></g></g><g
   id="g218"
   transform="translate(0,-468.004)"></g><g
   id="g220"
   transform="translate(0,-468.004)"></g><g
   id="g222"
   transform="translate(0,-468.004)"></g><g
   id="g224"
   transform="translate(0,-468.004)"></g><g
   id="g226"
   transform="translate(0,-468.004)"></g><g
   id="g228"
   transform="translate(0,-468.004)"></g><g
   id="g230"
   transform="translate(0,-468.004)"></g><g
   id="g232"
   transform="translate(0,-468.004)"></g><g
   id="g234"
   transform="translate(0,-468.004)"></g><g
   id="g236"
   transform="translate(0,-468.004)"></g><g
   id="g238"
   transform="translate(0,-468.004)"></g><g
   id="g240"
   transform="translate(0,-468.004)"></g><g
   id="g242"
   transform="translate(0,-468.004)"></g><g
   id="g244"
   transform="translate(0,-468.004)"></g><g
   id="g246"
   transform="translate(0,-468.004)"></g></svg>
