<svg xmlns="http://www.w3.org/2000/svg" width="24" height="24"><path fill="#f4b2b0" d="M4.918 8.987h14.164v14.275H4.918z"/><g fill="#b3404a"><path d="M8.44 19.377a.738.738 0 01-.737-.738v-4.721a.738.738 0 011.475 0v4.721c0 .408-.33.738-.737.738zm3.56 0a.738.738 0 01-.738-.738v-4.721a.738.738 0 011.476 0v4.721c0 .408-.33.738-.738.738zm3.56 0a.738.738 0 01-.738-.738v-4.721a.738.738 0 011.475 0v4.721c0 .408-.33.738-.738.738z"/><path d="M18.56 3.455a.738.738 0 000 1.475c.857 0 1.555.698 1.555 1.556V8.25H3.885V6.486c0-.858.698-1.556 1.556-1.556h7.666a.738.738 0 000-1.475H8.754v-1.98h6.492v2.718a.738.738 0 001.475 0V.738A.738.738 0 0015.984 0H8.016a.738.738 0 00-.737.738v2.717H5.44a3.034 3.034 0 00-3.031 3.03v2.503c0 .407.33.737.738.737H4.18v13.537c0 .408.33.738.738.738h14.164c.407 0 .738-.33.738-.738V9.725h1.032c.408 0 .738-.33.738-.737V6.486a3.035 3.035 0 00-3.03-3.031zm-.216 19.07H5.656v-12.8h12.688v12.8z"/></g></svg>