<svg xmlns="http://www.w3.org/2000/svg" height="24" width="24"><path d="M23.706 11.293l-3.535-3.535a1 1 0 00-1.414 1.414L20.585 11H13V3.415l1.828 1.828a1 1 0 001.414-1.414L12.707.293a1 1 0 00-1.415 0L7.757 3.83A1 1 0 009.17 5.243L11 3.415V11H3.414l1.828-1.828a1 1 0 00-1.414-1.414L.292 11.293a1 1 0 000 1.414l3.536 3.536a1 1 0 001.414-1.414L3.414 13H11v7.586l-1.83-1.828a1 1 0 00-1.414 1.414l3.536 3.536a1 1 0 001.414 0l3.535-3.536a1 1 0 00-1.414-1.414L13 20.586V13h7.585l-1.828 1.829a1 1 0 001.414 1.414l3.536-3.536a1 1 0 000-1.414z"/></svg>