<svg xmlns="http://www.w3.org/2000/svg" width="24" height="24"><path d="M23.707 5.897c-.013.216-.042.365-.082.439-.042.079-.165.136-.368.172-.441.097-.735-.07-.88-.501-.512-1.59-1.122-2.644-1.827-3.172-.978-.727-2.69-1.091-5.14-1.091-.992 0-1.536.108-1.63.322a.722.722 0 00-.054.305v17.86c0 .763.176 1.3.536 1.606.36.3 1.005.687 2.07.939.453.097.911.188.971.225.433 0 .474.993-.353.993-.024.015-9.753-.007-9.753-.007s-.68-.413-.07-.962l.721-.322s1.72-.577 2.079-.949c.408-.418.609-1.094.609-2.025V2.37c0-.346-.215-.55-.646-.608-.046-.014-.4-.018-1.055-.018-2.27 0-3.94.393-5.018 1.183-.812.585-1.53 1.658-2.164 3.226-.204.49-.486.648-.844.483-.406-.095-.553-.32-.448-.663C.779 4.68.989 2.86.989.506c0-.274.364-.55 1.093-.5L22.167.06c.667-.098 1.03.011 1.09.322.335 1.588.484 3.427.45 5.515z"/></svg>